<?xml version="1.0" encoding="UTF-8" standalone="no"?>
<svg
   xmlnsDc="http://purl.org/dc/elements/1.1/"
   xmlnsCc="http://creativecommons.org/ns#"
   xmlnsRdf="http://www.w3.org/1999/02/22-rdf-syntax-ns#"
   xmlnsSvg="http://www.w3.org/2000/svg"
   xmlns="http://www.w3.org/2000/svg"
   xmlnsSodipodi="http://sodipodi.sourceforge.net/DTD/sodipodi-0.dtd"
   xmlnsInkscape="http://www.inkscape.org/namespaces/inkscape"
   version="1.1"
   id="Capa_1"
   x="0px"
   y="0px"
   width="503.021px"
   height="503.021px"
   viewBox="0 0 503.021 503.021"
   style="enable-background:new 0 0 503.021 503.021;"
   xmlSpace="preserve"
   sodipodiDocname="cross-sign.svg"
   inkscapeVersion="1.0.2-2 (e86c870879, 2021-01-15)"><metadata
   id="metadata43"><rdfRDF><ccWork
       rdfAbout=""><dcFormat>image/svg+xml</dcFormat><dcType
         rdfResource="http://purl.org/dc/dcmitype/StillImage" /></ccWork></rdfRDF></metadata><defs
   id="defs41" /><sodipodiNamedview
   pagecolor="#ffffff"
   bordercolor="#666666"
   borderopacity="1"
   objecttolerance="10"
   gridtolerance="10"
   guidetolerance="10"
   id="namedview39"
   showgrid="false"/>
<g
   id="g6"
   style="fill:#e0e0e0;fill-opacity:1">
	<g
   id="g4"
   style="fill:#e0e0e0;fill-opacity:1">
		<path
   d="M491.613,75.643l-64.235-64.235c-15.202-15.202-39.854-15.202-55.056,0L251.507,132.222L130.686,11.407    c-15.202-15.202-39.853-15.202-55.055,0L11.401,75.643c-15.202,15.202-15.202,39.854,0,55.056l120.821,120.815L11.401,372.328    c-15.202,15.202-15.202,39.854,0,55.056l64.235,64.229c15.202,15.202,39.854,15.202,55.056,0l120.815-120.814l120.822,120.814    c15.202,15.202,39.854,15.202,55.056,0l64.235-64.229c15.202-15.202,15.202-39.854,0-55.056L370.793,251.514l120.82-120.815    C506.815,115.49,506.815,90.845,491.613,75.643z"
   id="path2"
   style="fill:#e0e0e0;fill-opacity:1" />
	</g>
</g>
<g
   id="g8">
</g>
<g
   id="g10">
</g>
<g
   id="g12">
</g>
<g
   id="g14">
</g>
<g
   id="g16">
</g>
<g
   id="g18">
</g>
<g
   id="g20">
</g>
<g
   id="g22">
</g>
<g
   id="g24">
</g>
<g
   id="g26">
</g>
<g
   id="g28">
</g>
<g
   id="g30">
</g>
<g
   id="g32">
</g>
<g
   id="g34">
</g>
<g
   id="g36">
</g>
</svg>
